<svg xmlns="http://www.w3.org/2000/svg" width="32" height="32" viewBox="0 0 32 32"><path fill="#FFF" d="M2 2h28v28H2V2z"/><path fill="#999" d="M28 4v24H4V4h24m2-2H2v28h28V2z"/><path fill="#FFF" d="M20 16h-5.334L16 14.666l1.334-1.332 1.332 1.332L20 16z"/><g transform="translate(-1.5 -1.5)"><path fill="#59F" d="M15.5 7.5h12v12h-12v-12z"/><path fill="#FFF" d="M23.5 17.5h-6l1.5-2 1.5-2 1.5 2 1.5 2z"/><ellipse fill="#FFF" cx="24.5" cy="12.5" rx="1" ry="1"/></g><g transform="translate(-1.5 -1.5)"><path fill="#59F" d="M11.5 11.5h12v12h-12v-12z"/><path fill="#FFF" d="M19.5 21.5h-6l1.5-2 1.5-2 1.5 2 1.5 2z"/><ellipse fill="#FFF" cx="20.5" cy="16.5" rx="1" ry="1"/></g><path fill="#FFF" d="M13 9h10v1H13z"/><path fill="#FFF" d="M22 9h1v10h-1z"/><g transform="translate(-1.5 -1.5)"><path fill="#59F" d="M7.5 15.5h12v12h-12v-12z"/><path fill="#FFF" d="M15.5 25.5h-6l1.5-2 1.5-2 1.5 2 1.5 2z"/><ellipse fill="#FFF" cx="16.5" cy="20.5" rx="1" ry="1"/></g><path fill="#FFF" d="M9 13h10v1H9z"/><path fill="#FFF" d="M18 13h1v10h-1z"/></svg>